<?xml version="1.0" standalone="no"?>
<!DOCTYPE svg PUBLIC "-//W3C//DTD SVG 20010904//EN"
 "http://www.w3.org/TR/2001/REC-SVG-20010904/DTD/svg10.dtd">
<svg version="1.0" xmlns="http://www.w3.org/2000/svg"
 width="393.000000pt" height="393.000000pt" viewBox="0 0 393.000000 393.000000"
 preserveAspectRatio="xMidYMid meet">
<metadata>
Created by potrace 1.14, written by Peter Selinger 2001-2017
</metadata>
<g transform="translate(0.000000,393.000000) scale(0.100000,-0.100000)"
fill="#000000" stroke="none">
<path d="M470 3633 c-177 -19 -323 -114 -403 -262 -156 -290 -2 -641 318 -725
52 -14 175 -16 970 -15 753 0 919 3 963 15 176 47 306 170 361 340 23 71 26
212 6 278 -56 186 -210 328 -390 361 -36 7 -1765 14 -1825 8z"/>
<path d="M3320 3629 c-199 -27 -358 -166 -417 -363 -19 -60 -20 -193 -4 -256
44 -170 192 -319 361 -364 77 -20 208 -14 290 14 321 109 440 502 235 775
-108 144 -287 218 -465 194z"/>
<path d="M1856 2474 c-95 -23 -165 -63 -237 -134 -100 -99 -149 -211 -149
-345 -1 -75 1 -89 24 -169 69 -237 351 -390 600 -325 114 29 238 118 299 216
122 194 94 454 -68 619 -122 124 -303 178 -469 138z"/>
<path d="M461 1284 c-273 -46 -457 -311 -405 -583 43 -228 227 -392 459 -408
285 -19 527 203 529 487 1 96 -4 124 -31 196 -44 115 -132 208 -248 264 -71
34 -108 44 -205 54 -14 1 -58 -3 -99 -10z"/>
<path d="M1638 1284 c-225 -45 -393 -240 -403 -470 -11 -229 123 -422 346
-498 l74 -26 940 3 940 2 59 23 c155 58 266 177 317 337 18 57 19 196 2 263
-36 140 -134 258 -268 322 -44 21 -102 42 -130 46 -86 12 -1812 10 -1877 -2z"/>
</g>
</svg>
